<svg width="153" height="30" viewBox="0 0 153 30" fill="none" xmlns="http://www.w3.org/2000/svg">
<g id="Group 1000004608">
<path id="Vector" d="M58.8906 14.1194C58.8906 12.9721 59.1217 11.9005 59.5851 10.9043C60.0477 9.90804 60.6916 9.04285 61.5174 8.30816C62.3423 7.57375 63.3235 6.99497 64.4608 6.57237C65.5976 6.14978 66.8406 5.93848 68.1892 5.93848C69.5378 5.93848 70.7503 6.14518 71.8873 6.55724C73.0241 6.96984 74.0104 7.54349 74.8459 8.2779C75.6809 9.01285 76.3299 9.88831 76.7931 10.9043C77.2557 11.9208 77.4875 13.0429 77.4875 14.2705C77.4875 15.498 77.2508 16.6204 76.7782 17.6364C76.3051 18.6529 75.656 19.5284 74.8311 20.2628C74.0056 20.9977 73.0144 21.566 71.8574 21.9683C70.6998 22.3706 69.4468 22.5722 68.0987 22.5722C66.7506 22.5722 65.5425 22.3709 64.4157 21.9683C63.2883 21.566 62.3175 20.9923 61.5022 20.2476C60.687 19.5032 60.0479 18.6129 59.5851 17.5759C59.1219 16.5394 58.8906 15.3872 58.8906 14.1192V14.1194ZM64.657 14.18C64.657 14.7036 64.7524 15.1813 64.9437 15.6139C65.1347 16.0471 65.386 16.4243 65.6984 16.7461C66.0102 17.0682 66.3823 17.3197 66.8154 17.5008C67.2481 17.6818 67.7061 17.7723 68.1889 17.7723C68.6718 17.7723 69.1296 17.6818 69.5624 17.5008C69.995 17.3197 70.3671 17.0682 70.6795 16.7461C70.9913 16.4243 71.2426 16.0471 71.4342 15.6139C71.6252 15.1813 71.7209 14.7136 71.7209 14.2102C71.7209 13.7068 71.6252 13.2696 71.4342 12.8368C71.2426 12.4042 70.9913 12.027 70.6795 11.7046C70.3671 11.3828 69.995 11.131 69.5624 10.9499C69.1296 10.7689 68.6718 10.6781 68.1889 10.6781C67.7061 10.6781 67.2478 10.7686 66.8154 10.9499C66.3823 11.131 66.0102 11.3828 65.6984 11.7046C65.386 12.0267 65.1347 12.399 64.9437 12.8216C64.7521 13.2442 64.657 13.6971 64.657 14.1802V14.18Z" fill="#4061DB"/>
<path id="Vector_2" d="M17.9295 7.85813C17.8968 6.37687 16.6884 5.18555 15.1992 5.18555C13.7101 5.18555 12.5017 6.37687 12.469 7.85813H12.4682V7.87326C12.4682 7.88866 12.4658 7.90353 12.4658 7.91866C12.4658 7.93379 12.4679 7.94892 12.4682 7.96432V8.14293C11.2201 6.77461 9.68039 6.09019 7.84916 6.09019C6.72183 6.09019 5.68015 6.30662 4.72441 6.73922C3.7684 7.17208 2.94316 7.76545 2.24899 8.5204C1.55454 9.27508 1.006 10.1611 0.603657 11.177C0.201039 12.1935 0 13.2954 0 14.4827C0 15.67 0.185907 16.7119 0.558531 17.6676C0.930615 18.6239 1.45375 19.4439 2.12847 20.1281C2.80238 20.8125 3.60248 21.3459 4.52851 21.728C5.45399 22.11 6.47053 22.3016 7.57759 22.3016C8.08046 22.3016 8.54361 22.2662 8.96622 22.1959C9.38883 22.1252 9.79118 22.0095 10.1738 21.8487C10.5559 21.688 10.9334 21.4818 11.306 21.2297C11.6781 20.9784 12.0656 20.6612 12.4682 20.2789V21.7582C12.4682 22.9055 12.161 23.8007 11.5473 24.4449C10.9331 25.0887 10.053 25.4108 8.90569 25.4108C7.55706 25.4108 6.69156 24.8977 6.30921 23.8712H0.151049C0.311826 24.7164 0.634191 25.4962 1.11706 26.2109C1.6002 26.9251 2.21899 27.5492 2.9737 28.0826C3.7284 28.6157 4.60849 29.0337 5.6153 29.3355C6.62131 29.6374 7.72864 29.7884 8.93622 29.7884C10.0028 29.7884 10.9939 29.6676 11.9099 29.4261C12.8257 29.1845 13.6458 28.8524 14.3705 28.4298C15.0949 28.0072 15.714 27.509 16.2271 26.9356C16.7403 26.3619 17.1177 25.7432 17.3593 25.079C17.5404 24.5554 17.6811 23.9517 17.7819 23.2676C17.8824 22.5831 17.933 21.8087 17.933 20.943V7.85813H17.93H17.9295ZM12.4531 15.5843C12.2615 16.0172 12.0102 16.3947 11.6983 16.7165C11.386 17.0386 11.0139 17.2901 10.5813 17.4712C10.1484 17.6522 9.69066 17.743 9.20779 17.743C8.72492 17.743 8.23664 17.6525 7.80403 17.4712C7.37115 17.2901 6.9988 17.0386 6.68697 16.7165C6.3746 16.3947 6.12844 16.0175 5.9474 15.5843C5.76635 15.1517 5.67556 14.6837 5.67556 14.1806C5.67556 13.6775 5.77095 13.2446 5.96226 12.822C6.1533 12.3994 6.41 12.0325 6.7321 11.7202C7.05392 11.4083 7.42654 11.157 7.84916 10.9655C8.27177 10.7744 8.72465 10.6785 9.20752 10.6785C9.69039 10.6785 10.1179 10.769 10.551 10.9503C10.9836 11.1314 11.3608 11.3832 11.6832 11.705C12.005 12.0271 12.2615 12.3994 12.4531 12.822C12.6441 13.2446 12.7397 13.708 12.7397 14.2106C12.7397 14.7132 12.6441 15.1517 12.4531 15.5843Z" fill="#4061DB"/>
<path id="Vector_3" d="M131.907 8.072C131.874 6.59074 130.666 5.39941 129.177 5.39941C127.688 5.39941 126.479 6.59074 126.447 8.072H126.446V8.08875C126.446 8.10361 126.444 8.11793 126.444 8.13252C126.444 8.14712 126.445 8.16171 126.446 8.17657V8.35463C125.198 6.98632 123.658 6.30189 121.827 6.30189C120.699 6.30189 119.658 6.51833 118.702 6.95092C117.746 7.38379 116.921 7.97716 116.227 8.73211C115.532 9.48678 114.984 10.3728 114.581 11.3887C114.178 12.4053 113.978 13.5071 113.978 14.6944C113.978 15.8817 114.163 16.9236 114.536 17.8793C114.908 18.8356 115.431 19.6556 116.106 20.3398C116.78 21.0242 117.58 21.5576 118.506 21.9397C119.432 22.3217 120.448 22.5133 121.555 22.5133C122.058 22.5133 122.521 22.4779 122.944 22.4077C123.367 22.3369 123.769 22.2212 124.152 22.0604C124.534 21.8997 124.911 21.6935 125.284 21.4414C125.656 21.1901 126.043 20.8729 126.446 20.4906V21.9699C126.446 23.1172 126.139 24.0124 125.525 24.6566C124.911 25.3005 124.031 25.6225 122.883 25.6225C121.535 25.6225 120.669 25.1094 120.287 24.0829H114.129C114.289 24.9281 114.612 25.7079 115.095 26.4226C115.578 27.1368 116.197 27.7609 116.951 28.2943C117.706 28.8274 118.586 29.2454 119.593 29.5472C120.599 29.8491 121.706 30.0001 122.914 30.0001C123.98 30.0001 124.971 29.8793 125.887 29.6378C126.803 29.3962 127.624 29.0641 128.348 28.6415C129.073 28.2189 129.692 27.7207 130.205 27.1473C130.718 26.5737 131.095 25.9549 131.337 25.2907C131.518 24.7671 131.659 24.1634 131.759 23.4793C131.86 22.7949 131.911 22.0205 131.911 21.1547V8.072H131.908H131.907ZM126.094 15.7963C125.903 16.2292 125.651 16.6067 125.339 16.9285C125.027 17.2505 124.655 17.5021 124.222 17.6831C123.79 17.8642 123.332 17.955 122.849 17.955C122.366 17.955 121.877 17.8645 121.445 17.6831C121.012 17.5021 120.64 17.2505 120.328 16.9285C120.015 16.6067 119.769 16.2294 119.588 15.7963C119.407 15.3637 119.316 14.8957 119.316 14.3926C119.316 13.8895 119.412 13.4566 119.603 13.034C119.794 12.6114 120.051 12.2445 120.373 11.9321C120.695 11.6203 121.067 11.369 121.49 11.1774C121.913 10.9864 122.365 10.8905 122.849 10.8905C123.332 10.8905 123.759 10.981 124.192 11.1623C124.624 11.3434 125.002 11.5952 125.324 11.917C125.646 12.2391 125.902 12.6114 126.094 13.034C126.285 13.4566 126.381 13.92 126.381 14.4226C126.381 14.9252 126.285 15.3637 126.094 15.7963H126.094Z" fill="#4061DB"/>
<path id="Vector_4" d="M57.0101 11.0257C56.6275 10.0294 56.0992 9.16423 55.425 8.42927C54.7503 7.69486 53.9354 7.11149 52.9796 6.67835C52.0236 6.24576 50.9719 6.02932 49.8249 6.02932C47.8926 6.02932 46.2824 6.70375 44.9945 8.0518V2.77688C44.9945 2.76202 44.9967 2.7477 44.9967 2.73311C44.9967 1.22348 43.7729 0 42.2635 0C40.7541 0 39.5303 1.22375 39.5303 2.73311V22.5039H44.9945V20.2788C46.1616 21.7481 47.7518 22.4826 49.7646 22.4826C50.8711 22.4826 51.9028 22.2661 52.8591 21.8335C53.8148 21.4009 54.6449 20.8124 55.3496 20.0675C56.0538 19.3231 56.6024 18.4476 56.995 17.4411C57.3873 16.4351 57.5838 15.3581 57.5838 14.2108C57.5838 13.0635 57.3922 12.0222 57.0101 11.0259V11.0257ZM52.0955 15.6294C51.9039 16.052 51.6526 16.4246 51.3408 16.7464C51.0287 17.0685 50.6614 17.3201 50.2388 17.5011C49.8162 17.6821 49.3633 17.7726 48.8802 17.7726C48.3971 17.7726 47.939 17.6773 47.5067 17.486C47.0738 17.2949 46.6963 17.0436 46.3745 16.7313C46.0524 16.4195 45.8008 16.052 45.6198 15.6294C45.4388 15.2068 45.348 14.7539 45.348 14.2711C45.348 13.7882 45.4434 13.3305 45.6347 12.8974C45.8257 12.4648 46.0773 12.0876 46.3894 11.7652C46.7012 11.4434 47.0687 11.1916 47.4913 11.0105C47.9139 10.8295 48.3668 10.7387 48.8497 10.7387C49.3325 10.7387 49.8157 10.8346 50.2386 11.0257C50.6612 11.2172 51.0333 11.4737 51.3556 11.7955C51.6774 12.1176 51.9293 12.495 52.1103 12.9276C52.2914 13.3605 52.3822 13.8182 52.3822 14.3011C52.3822 14.7839 52.2865 15.2068 52.0952 15.6294H52.0955Z" fill="#4061DB"/>
<path id="Vector_5" d="M37.4453 7.88592C37.4186 6.39196 36.201 5.18848 34.7005 5.18848C33.2 5.18848 31.9824 6.39196 31.9557 7.88592H31.9532V8.05318C30.6854 6.70513 29.0852 6.0307 27.1532 6.0307C26.0058 6.0307 24.9593 6.24713 24.0136 6.67973C23.0673 7.1126 22.2523 7.70137 21.5681 8.44578C20.8837 9.19046 20.3503 10.0608 19.9682 11.057C19.5856 12.0533 19.3945 13.1052 19.3945 14.2117C19.3945 15.3995 19.5907 16.4962 19.9833 17.5022C20.3757 18.5087 20.9239 19.3842 21.6287 20.1286C22.3328 20.8733 23.1581 21.452 24.1041 21.8644C25.0498 22.2767 26.0861 22.4831 27.2137 22.4831C29.2062 22.4831 30.7859 21.7487 31.9535 20.2794V22.5045H37.448V7.88592H37.4456H37.4453ZM31.5112 15.6305C31.3196 16.0531 31.0683 16.4257 30.7565 16.7475C30.4441 17.0696 30.072 17.3212 29.6394 17.5022C29.2065 17.6832 28.7488 17.7738 28.2659 17.7738C27.783 17.7738 27.2948 17.6832 26.8621 17.5022C26.4293 17.3212 26.0569 17.0696 25.7451 16.7475C25.4327 16.4257 25.1866 16.0485 25.0055 15.6154C24.8245 15.1828 24.7337 14.715 24.7337 14.2117C24.7337 13.7083 24.8242 13.2811 25.0055 12.8682C25.1866 12.4559 25.433 12.0884 25.7451 11.7663C26.0569 11.4445 26.429 11.1927 26.8621 11.0116C27.2948 10.8306 27.7628 10.7398 28.2659 10.7398C28.769 10.7398 29.2065 10.8303 29.6394 11.0116C30.072 11.1927 30.4441 11.4445 30.7565 11.7663C31.0683 12.0884 31.3196 12.4659 31.5112 12.8985C31.7022 13.3316 31.7979 13.7891 31.7979 14.2722C31.7979 14.7553 31.7022 15.2079 31.5112 15.6305Z" fill="#4061DB"/>
<path id="Vector_6" d="M112.345 8.09118C112.316 6.59966 111.099 5.39941 109.601 5.39941C108.102 5.39941 106.886 6.59966 106.856 8.09118H106.854V8.26411C105.586 6.91607 103.986 6.24164 102.054 6.24164C100.906 6.24164 99.8597 6.45807 98.914 6.89067C97.9677 7.32353 97.1527 7.91231 96.4685 8.65672C95.7841 9.4014 95.2507 10.2717 94.8686 11.268C94.486 12.2642 94.2949 13.3161 94.2949 14.4226C94.2949 15.6104 94.4911 16.7072 94.8837 17.7131C95.2761 18.7196 95.8243 19.5951 96.5291 20.3395C97.2332 21.0842 98.0585 21.663 99.0045 22.0753C99.9502 22.4876 100.986 22.6941 102.114 22.6941C104.107 22.6941 105.686 21.9597 106.854 20.4903V22.7154H112.348V8.09118H112.346H112.345ZM106.412 15.8414C106.22 16.264 105.969 16.6366 105.657 16.9585C105.345 17.2805 104.973 17.5321 104.54 17.7131C104.107 17.8942 103.649 17.9847 103.167 17.9847C102.684 17.9847 102.195 17.8942 101.763 17.7131C101.33 17.5321 100.958 17.2805 100.646 16.9585C100.333 16.6366 100.087 16.2594 99.9062 15.8263C99.7251 15.3937 99.6343 14.926 99.6343 14.4226C99.6343 13.9192 99.7249 13.492 99.9062 13.0791C100.087 12.6668 100.334 12.2993 100.646 11.9773C100.958 11.6554 101.33 11.4036 101.763 11.2226C102.195 11.0415 102.663 10.9507 103.167 10.9507C103.67 10.9507 104.107 11.0413 104.54 11.2226C104.973 11.4036 105.345 11.6554 105.657 11.9773C105.969 12.2993 106.22 12.6768 106.412 13.1094C106.603 13.5425 106.699 14 106.699 14.4831C106.699 14.9662 106.603 15.4188 106.412 15.8414Z" fill="#4061DB"/>
<path id="Vector_7" d="M151.577 11.1152C151.113 10.0993 150.464 9.22379 149.629 8.48884C148.794 7.75442 147.808 7.18078 146.671 6.76818C145.533 6.35585 144.301 6.14941 142.972 6.14941C141.644 6.14941 140.381 6.36071 139.244 6.78331C138.107 7.20591 137.126 7.78469 136.3 8.5191C135.475 9.25405 134.831 10.1192 134.368 11.1152C133.905 12.1115 133.674 13.1831 133.674 14.3304C133.674 15.5984 133.905 16.7506 134.368 17.7871C134.831 18.8239 135.47 19.7144 136.285 20.4589C137.1 21.2035 138.071 21.7772 139.199 22.1795C140.325 22.5818 141.554 22.7834 142.882 22.7834C144.21 22.7834 145.483 22.5821 146.641 22.1795C147.798 21.7772 148.789 21.2089 149.614 20.474C150.439 19.7396 151.088 18.8641 151.561 17.8476C152.034 16.8316 152.271 15.7095 152.271 14.4817C152.271 13.2539 152.039 12.132 151.577 11.1155V11.1152Z" fill="#4061DB"/>
<path id="Vector_8" d="M83.6533 22.2104L88.0937 15.5871H88.0939L89.1637 13.9886L89.1645 13.9891L93.9816 6.72363H78.5549V11.282H84.8643L77.5586 22.2104H83.6533Z" fill="#4061DB"/>
<path id="Vector_9" d="M83.5879 22.2149C83.5879 22.2149 87.4752 17.9924 90.9509 17.6547C94.2959 17.3296 94.5148 22.2149 91.1495 22.2149H83.5879Z" fill="#4061DB"/>
<path id="Vector_10" d="M145.586 10.7268L138.785 13.0927C138.003 13.3647 138.044 14.485 138.844 14.6987L141.875 15.5083L142.684 18.5386C142.898 19.339 144.018 19.3803 144.29 18.5978L146.656 11.797C146.887 11.1331 146.25 10.496 145.586 10.727L145.586 10.7268Z" fill="white"/>
</g>
</svg>
