<svg width="76" height="75" viewBox="0 0 76 75" fill="none" xmlns="http://www.w3.org/2000/svg">
<g id="_&#235;&#160;&#136;&#236;&#157;&#180;&#236;&#150;&#180;_1" clip-path="url(#clip0_161_103233)">
<path id="Vector" d="M29.3558 65.9397C45.1096 70.7161 61.7526 61.8172 66.529 46.0634C71.3054 30.3096 62.4065 13.6666 46.6527 8.89016C30.8989 4.11375 14.2559 13.0127 9.47947 28.7665C4.70306 44.5203 13.602 61.1633 29.3558 65.9397Z" fill="#E2E9FF" stroke="#4060DA" stroke-width="0.527942" stroke-miterlimit="10"/>
<path id="Vector_2" d="M30.552 61.9961C44.1284 66.1123 58.4711 58.4433 62.5874 44.8669C66.7036 31.2905 59.0346 16.9478 45.4582 12.8315C31.8818 8.71529 17.5391 16.3843 13.4229 29.9607C9.30661 43.5371 16.9756 57.8798 30.552 61.9961Z" fill="white" stroke="#4060DA" stroke-width="0.527942" stroke-miterlimit="10"/>
<path id="Vector_3" d="M45.459 12.8325L44.2339 16.873" stroke="#4060DA" stroke-width="0.527942" stroke-miterlimit="10"/>
<path id="Vector_4" d="M31.7773 57.9565L30.5523 61.997" stroke="#4060DA" stroke-width="0.527942" stroke-miterlimit="10"/>
<path id="Vector_5" d="M62.3276 45.0073L58.2871 43.7822" stroke="#4060DA" stroke-width="0.527942" stroke-miterlimit="10"/>
<path id="Vector_6" d="M17.2036 31.3261L13.1631 30.1011" stroke="#4060DA" stroke-width="0.527942" stroke-miterlimit="10"/>
<g id="Group">
<path id="Vector_7" d="M40.2256 52.0976C39.9272 52.9866 38.64 52.8886 38.4801 51.9635L37.2966 45.1432C36.7698 42.1025 34.1692 39.8612 31.087 39.7786L24.1658 39.5981C23.2307 39.5738 22.9458 38.3145 23.7788 37.888L47.1075 25.9922C47.9591 25.559 48.9085 26.3778 48.6006 27.2845L40.2256 52.0976Z" fill="#4061DA"/>
<path id="Vector_8" d="M34.5991 39.054L35.6469 39.6433C35.9113 39.7893 36.2412 39.7329 36.438 39.5045L46.1332 28.2822C46.2226 28.1776 46.1038 28.0264 45.981 28.092L26.6976 37.9259C26.5415 38.0062 26.5978 38.2414 26.7698 38.2441C26.7698 38.2441 32.8043 37.8472 34.6017 39.0589L34.5991 39.054Z" fill="white"/>
</g>
</g>
<defs>
<clipPath id="clip0_161_103233">
<rect width="60" height="60" fill="white" transform="translate(18) rotate(16.8668)"/>
</clipPath>
</defs>
</svg>
