<svg width="19" height="18" viewBox="0 0 19 18" fill="none" xmlns="http://www.w3.org/2000/svg">
<g id="_&#235;&#160;&#136;&#236;&#157;&#180;&#236;&#150;&#180;_1">
<g id="Group 1000004378">
<g id="Group">
<path id="Vector" d="M7.06683 9.12848L6.27734 9.75664L6.50137 10.7781L11.5969 15.5051L13.9358 15.6067L16.7425 14.2495L17.5302 12.4844L16.3977 9.12848L14.8221 5.80479L13.7881 5.92787L13.5665 7.06056L13.9111 7.87289L12.6555 7.52827L11.5969 6.34652L9.43032 4.62305L8.74443 5.17522L7.9778 5.3617L7.09144 5.60786L7.14067 6.52928L6.64835 7.45442L6.50137 8.11905L7.06683 9.12848Z" fill="white"/>
<path id="Vector_2" d="M13.9863 5.48976C13.3394 5.74921 13.0224 6.48485 13.277 7.13284L13.4768 7.69068L10.3137 4.52762C9.81858 4.03246 9.01281 4.03246 8.51765 4.52762C8.39935 4.64591 8.30975 4.78192 8.24794 4.92714C7.78342 4.72578 7.22239 4.81433 6.84341 5.19331C6.45203 5.58469 6.37022 6.1698 6.59743 6.64247C6.45628 6.70445 6.324 6.79282 6.20853 6.90828C5.70948 7.40733 5.70948 8.21948 6.20853 8.71853L6.4492 8.9592C6.33604 9.01765 6.22978 9.09415 6.13504 9.1889C5.63988 9.68405 5.63988 10.4898 6.13504 10.985L9.7945 14.6444C9.90412 14.7587 11.3503 16.2243 13.2792 16.2498C14.391 16.2645 15.4259 15.8025 16.3555 14.8768C16.3733 14.8607 16.4063 14.8302 16.4504 14.7861C16.6358 14.6007 17.0187 14.1734 17.3164 13.5479C17.6868 12.7692 17.9964 11.5207 17.3675 9.99556C17.3656 9.9906 17.3635 9.98582 17.3612 9.98086L15.6338 6.18557C15.3694 5.54254 14.6329 5.23068 13.9865 5.48994L13.9863 5.48976ZM14.8162 6.52541C14.8186 6.53161 14.8213 6.5378 14.8241 6.544L16.5519 10.3402C16.9496 11.3094 16.9427 12.2503 16.5313 13.1367C16.215 13.8183 15.7659 14.2162 15.7627 14.2191C15.7544 14.2261 15.7464 14.2336 15.7388 14.2414C14.9839 14.9963 14.1623 15.3742 13.2969 15.3645C11.7092 15.3466 10.4444 14.0429 10.4324 14.0303C10.4297 14.0274 10.4269 14.0246 10.4242 14.022L6.76142 10.3591C6.61142 10.2091 6.61142 9.96527 6.76142 9.81528C6.91142 9.66528 7.15527 9.66528 7.30527 9.81528L9.85188 12.3619C10.0247 12.5347 10.3051 12.5347 10.4781 12.3619C10.6511 12.189 10.6509 11.9087 10.4781 11.7357L6.83491 8.09251C6.68102 7.93861 6.68102 7.68838 6.83491 7.53449C6.97712 7.39228 7.20203 7.38166 7.35663 7.50243L10.8227 10.9685C10.9955 11.1414 11.2759 11.1414 11.4489 10.9685C11.6217 10.7957 11.6217 10.5153 11.4489 10.3423L8.05331 6.94671C8.04269 6.93343 8.03153 6.9205 8.01914 6.90828C7.99912 6.88827 7.97858 6.8695 7.95751 6.85108L7.46979 6.36337C7.31979 6.21337 7.31979 5.96951 7.46979 5.81951C7.61979 5.66951 7.86365 5.66951 8.01365 5.81951L8.51783 6.3237L11.982 9.78783C12.1548 9.96067 12.4351 9.96067 12.6082 9.78783C12.7812 9.61498 12.781 9.33464 12.6082 9.16162L9.14403 5.6975C8.99404 5.5475 8.99404 5.30364 9.14403 5.15364C9.29403 5.00364 9.53789 5.00364 9.68789 5.15364L14.2459 9.71168C14.3924 9.85813 14.6208 9.88346 14.796 9.7726C14.9709 9.66174 15.0457 9.44444 14.9759 9.24928L14.1085 6.82718C14.1065 6.82186 14.1046 6.81673 14.1027 6.81159C14.0237 6.61484 14.1197 6.39046 14.3164 6.31148C14.4117 6.27323 14.5163 6.27447 14.6107 6.31484C14.7051 6.35522 14.7783 6.42995 14.8165 6.52523L14.8162 6.52541Z" fill="#5276FA"/>
</g>
<g id="Group_2">
<path id="Vector_3" d="M5.43987 9.83259L4.65039 10.4606L4.87424 11.482L9.96993 16.209L12.3088 16.3108L15.1154 14.9534L15.9033 13.1885L14.7708 9.83259L13.1952 6.50889L12.1611 6.63197L11.9394 7.76466L12.2842 8.57699L11.0286 8.23219L9.96993 7.05045L7.80336 5.32715L7.1173 5.87933L6.35067 6.06563L5.46449 6.31197L5.51372 7.23338L5.02122 8.15834L4.87424 8.82315L5.43987 9.83259Z" fill="white"/>
<path id="Vector_4" d="M12.3613 6.19387C11.7144 6.45331 11.3974 7.18895 11.652 7.83694L11.8518 8.39478L8.68874 5.23172C8.19358 4.73656 7.38781 4.73656 6.89265 5.23172C6.77436 5.35002 6.68475 5.48602 6.62294 5.63124C6.15842 5.42988 5.59739 5.51843 5.21841 5.89741C4.82703 6.28879 4.74522 6.87391 4.97243 7.34657C4.83128 7.40855 4.699 7.49692 4.58353 7.61239C4.08448 8.11144 4.08448 8.92359 4.58353 9.42264L4.8242 9.66331C4.71104 9.72175 4.60478 9.79825 4.51004 9.893C4.01488 10.3882 4.01488 11.1939 4.51004 11.6891L8.1695 15.3485C8.27912 15.4628 9.72527 16.9284 11.6542 16.9539C12.766 16.9686 13.8009 16.5066 14.7305 15.5809C14.7483 15.5648 14.7813 15.5343 14.8254 15.4902C15.0108 15.3048 15.3937 14.8775 15.6914 14.252C16.0618 13.4733 16.3714 12.2248 15.7425 10.6997C15.7406 10.6947 15.7385 10.6899 15.7362 10.685L14.0088 6.88967C13.7444 6.24664 13.0079 5.93478 12.3615 6.19404L12.3613 6.19387ZM13.1912 7.22951C13.1936 7.23571 13.1963 7.24191 13.1991 7.2481L14.9269 11.0443C15.3246 12.0135 15.3177 12.9544 14.9063 13.8408C14.59 14.5224 14.1409 14.9203 14.1377 14.9232C14.1294 14.9302 14.1214 14.9377 14.1138 14.9455C13.3589 15.7004 12.5373 16.0783 11.6719 16.0686C10.0842 16.0507 8.81943 14.747 8.80739 14.7344C8.80473 14.7315 8.8019 14.7287 8.79924 14.7261L5.13642 11.0632C4.98642 10.9132 4.98642 10.6694 5.13642 10.5194C5.28642 10.3694 5.53027 10.3694 5.68027 10.5194L8.22688 13.066C8.39972 13.2388 8.68006 13.2388 8.85308 13.066C9.0261 12.8931 9.02592 12.6128 8.85308 12.4398L5.20991 8.79661C5.05602 8.64272 5.05602 8.39248 5.20991 8.23859C5.35212 8.09638 5.57703 8.08576 5.73163 8.20653L9.1977 11.6726C9.37055 11.8455 9.65089 11.8455 9.82391 11.6726C9.99675 11.4998 9.99675 11.2194 9.82391 11.0464L6.42831 7.65082C6.41769 7.63753 6.40653 7.62461 6.39414 7.61239C6.37412 7.59237 6.35358 7.5736 6.33251 7.55518L5.84479 7.06747C5.69479 6.91747 5.69479 6.67361 5.84479 6.52361C5.99479 6.37362 6.23865 6.37362 6.38865 6.52361L6.89283 7.0278L10.357 10.4919C10.5298 10.6648 10.8101 10.6648 10.9832 10.4919C11.1562 10.3191 11.156 10.0387 10.9832 9.86572L7.51903 6.4016C7.36904 6.2516 7.36904 6.00774 7.51903 5.85774C7.66903 5.70774 7.91289 5.70774 8.06289 5.85774L12.6209 10.4158C12.7674 10.5622 12.9958 10.5876 13.171 10.4767C13.3459 10.3658 13.4207 10.1485 13.3509 9.95339L12.4835 7.53128C12.4816 7.52596 12.4796 7.52083 12.4777 7.51569C12.3987 7.31894 12.4947 7.09456 12.6914 7.01558C12.7867 6.97733 12.8913 6.97857 12.9857 7.01894C13.0801 7.05932 13.1533 7.13406 13.1915 7.22933L13.1912 7.22951Z" fill="#5276FA"/>
</g>
<g id="Group 1000004377">
<path id="Vector_5" d="M2.7511 2.7773C2.56284 2.58905 2.25763 2.58905 2.06938 2.7773C1.88112 2.96556 1.88112 3.27077 2.06938 3.45902L3.59548 4.98513C3.78373 5.17338 4.08895 5.17338 4.2772 4.98513C4.46545 4.79688 4.46545 4.49166 4.2772 4.30341L2.7511 2.7773Z" fill="#5276FA"/>
<path id="Vector_6" d="M1.2045 5.74942C0.945556 5.68759 0.685511 5.84738 0.623678 6.10633C0.561845 6.36528 0.721638 6.62532 0.980585 6.68715L3.07981 7.18842C3.33875 7.25025 3.5988 7.09046 3.66063 6.83151C3.72247 6.57257 3.56267 6.31252 3.30372 6.25069L1.2045 5.74942Z" fill="#5276FA"/>
<path id="Vector_7" d="M5.99818 1.60474C5.94839 1.34321 5.69601 1.17157 5.43448 1.22136C5.17295 1.27116 5.0013 1.52354 5.0511 1.78507L5.45477 3.90522C5.50457 4.16675 5.75695 4.33839 6.01848 4.2886C6.28001 4.2388 6.45165 3.98642 6.40186 3.72489L5.99818 1.60474Z" fill="#5276FA"/>
</g>
</g>
</g>
</svg>
