<svg width="16" height="16" viewBox="0 0 16 16" fill="none" xmlns="http://www.w3.org/2000/svg">
<g id="Person Circle / undefined / Glyph: undefined">
<path id="Vector" d="M7.99961 14.3996C4.46499 14.3996 1.59961 11.5342 1.59961 7.99961C1.59961 4.46499 4.46499 1.59961 7.99961 1.59961C11.5342 1.59961 14.3996 4.46499 14.3996 7.99961C14.3996 11.5342 11.5342 14.3996 7.99961 14.3996ZM11.1996 8.95961C11.1996 8.42943 10.7698 7.99961 10.2396 7.99961H5.75961C5.22941 7.99961 4.79961 8.42943 4.79961 8.95961V9.27961C4.79961 10.5413 5.9897 11.8396 7.99961 11.8396C10.0095 11.8396 11.1996 10.5413 11.1996 9.27961V8.95961ZM9.75961 5.59961C9.75961 4.62759 8.97164 3.83961 7.99961 3.83961C7.02758 3.83961 6.23961 4.62759 6.23961 5.59961C6.23961 6.57163 7.02758 7.35961 7.99961 7.35961C8.97164 7.35961 9.75961 6.57163 9.75961 5.59961Z" fill="#727272"/>
</g>
</svg>
