<svg width="35" height="35" viewBox="0 0 35 35" fill="none" xmlns="http://www.w3.org/2000/svg">
<g id="&#236;&#138;&#164;&#237;&#129;&#172;&#235;&#158;&#169;">
<path id="Vector" d="M9.23251 31.2464C8.50898 31.7671 7.5 31.2499 7.5 30.3586V8.48958C7.5 5.87198 9.62198 3.75 12.2396 3.75H23.1747C25.7923 3.75 27.9143 5.87198 27.9143 8.48958V30.3586C27.9143 31.2499 26.9053 31.7671 26.1818 31.2464L17.7071 25.1493L9.23251 31.2464ZM25.7268 8.48958C25.7268 7.0801 24.5842 5.9375 23.1747 5.9375H12.2396C10.8301 5.9375 9.6875 7.0801 9.6875 8.48958V28.2243L17.0684 22.914C17.45 22.6395 17.9644 22.6395 18.3459 22.914L25.7268 28.2243V8.48958Z" fill="white"/>
</g>
</svg>
